<?xml version="1.0" encoding="UTF-8" standalone="no"?>
<!-- Created with Inkscape (http://www.inkscape.org/) -->

<svg
   width="315.7038mm"
   height="36.381451mm"
   viewBox="0 0 315.7038 36.381451"
   version="1.1"
   id="svg19531"
   inkscape:version="1.1 (c68e22c387, 2021-05-23)"
   sodipodi:docname="logo.svg"
   xmlns:inkscape="http://www.inkscape.org/namespaces/inkscape"
   xmlns:sodipodi="http://sodipodi.sourceforge.net/DTD/sodipodi-0.dtd"
   xmlns="http://www.w3.org/2000/svg"
   xmlns:svg="http://www.w3.org/2000/svg">
  <sodipodi:namedview
     id="namedview19533"
     pagecolor="#ffffff"
     bordercolor="#111111"
     borderopacity="1"
     inkscape:pageshadow="0"
     inkscape:pageopacity="0"
     inkscape:pagecheckerboard="1"
     inkscape:document-units="mm"
     showgrid="false"
     fit-margin-top="0"
     fit-margin-left="0"
     fit-margin-right="0"
     fit-margin-bottom="0"
     inkscape:zoom="0.74118967"
     inkscape:cx="538.99834"
     inkscape:cy="359.55709"
     inkscape:window-width="1920"
     inkscape:window-height="1017"
     inkscape:window-x="-8"
     inkscape:window-y="-8"
     inkscape:window-maximized="1"
     inkscape:current-layer="layer1" />
  <defs
     id="defs19528">
    <rect
       x="1785.8975"
       y="3706.4104"
       width="1893.5897"
       height="682.05127"
       id="rect16068" />
  </defs>
  <g
     inkscape:label="Ebene 1"
     inkscape:groupmode="layer"
     id="layer1"
     transform="translate(43.13414,-101.39461)">
    <g
       id="g16176"
       transform="matrix(0.32885269,0,0,0.32885269,115.79215,-221.58923)">
      <path
         d="m -467.47022,1092.785 v -47.4133 h -15.8048 v 47.4133 z"
         id="path16072"
         style="fill:#02182b;fill-opacity:1;stroke-width:0.352778" />
      <path
         d="m -435.86133,1092.785 v -47.4133 h -15.8048 v 47.4133 z"
         id="path16074"
         style="fill:#02182b;fill-opacity:1;stroke-width:0.352778" />
      <path
         d="m -372.64355,1029.5672 v -47.4133 h -15.8048 v 47.4133 z"
         id="path16076"
         style="fill:#21a0a0;fill-opacity:1;stroke-width:0.352778" />
      <path
         d="m -404.25244,1029.5672 v -47.4133 h -15.8048 v 47.4133 z"
         id="path16078"
         style="fill:#21a0a0;fill-opacity:1;stroke-width:0.352778" />
      <path
         d="m -372.64355,1092.785 v -15.8048 h -47.41334 v 15.8048 z"
         id="path16080"
         style="fill:#02182b;fill-opacity:1;stroke-width:0.352778" />
      <path
         d="m -372.64355,1061.1761 v -15.8048 h -47.41334 v 15.8048 z"
         id="path16082"
         style="fill:#02182b;fill-opacity:1;stroke-width:0.352778" />
      <path
         d="m -435.86133,997.95835 v -15.8048 h -47.41334 v 15.8048 z"
         id="path16084"
         style="fill:#02182b;fill-opacity:1;stroke-width:0.352778" />
      <path
         d="m -435.86133,1029.5672 v -15.8048 h -47.41334 v 15.8048 z"
         id="path16086"
         style="fill:#02182b;fill-opacity:1;stroke-width:0.352778" />
    </g>
    <path
       id="path3002"
       style="font-weight:bold;font-size:192px;line-height:1.25;font-family:'Playfair Display SC';-inkscape-font-specification:'Playfair Display SC Bold';letter-spacing:0px;word-spacing:0px;white-space:pre;fill:#02182b;stroke-width:0.849876"
       d="M 193.75977 9.8457031 L 193.75977 13.109375 C 197.34964 13.326925 199.96004 13.761338 201.5918 14.414062 C 203.33234 15.066762 204.47561 16.318646 205.01953 18.167969 C 205.67224 20.017292 205.99805 23.008758 205.99805 27.142578 L 205.99805 108.07812 C 205.99805 112.21192 205.67224 115.20341 205.01953 117.05273 C 204.47561 118.90206 203.33234 120.15196 201.5918 120.80469 C 199.96004 121.45751 197.34964 121.89388 193.75977 122.11133 L 193.75977 125.375 L 198.98047 125.21094 C 207.24806 124.99349 214.10181 124.88477 219.54102 124.88477 C 226.06806 124.88477 236.0219 125.04865 249.40234 125.375 L 249.40234 121.78516 C 244.28949 121.67638 240.53583 121.2953 238.14258 120.64258 C 235.85811 119.98988 234.2271 118.68469 233.24805 116.72656 C 232.37777 114.65966 231.94336 111.45095 231.94336 107.09961 L 231.94336 78.707031 L 240.5918 78.705078 C 252.55805 78.705078 262.1308 76.856849 269.31055 73.158203 C 276.59908 69.459532 281.76654 64.890366 284.8125 59.451172 C 287.85845 53.903178 289.38086 48.137415 289.38086 42.154297 C 289.38086 32.363708 285.51859 24.585856 277.79492 18.820312 C 270.07125 12.945969 258.8675 10.007812 244.18164 10.007812 C 241.35325 10.007812 238.85146 10.063025 236.67578 10.171875 L 218.5625 10.335938 C 207.57531 10.335938 199.30776 10.172053 193.75977 9.8457031 z M 912.05859 9.8457031 L 912.05859 13.109375 C 915.64846 13.326925 918.26083 13.761338 919.89258 14.414062 C 921.63313 15.066762 922.77443 16.318646 923.31836 18.167969 C 923.97106 20.017292 924.29688 23.008758 924.29688 27.142578 L 924.29688 108.07812 C 924.29687 112.21192 923.97106 115.20341 923.31836 117.05273 C 922.77443 118.90206 921.63313 120.15196 919.89258 120.80469 C 918.26083 121.45751 915.64846 121.89388 912.05859 122.11133 L 912.05859 125.375 L 917.28125 125.21094 C 925.54884 124.99349 932.40258 124.88477 937.8418 124.88477 C 944.36884 124.88477 954.32267 125.04865 967.70312 125.375 L 967.70312 121.78516 C 962.59026 121.67638 958.83661 121.2953 956.44336 120.64258 C 954.15889 119.98988 952.52788 118.68469 951.54883 116.72656 C 950.67855 114.65966 950.24219 111.45095 950.24219 107.09961 L 950.24219 78.707031 L 958.89062 78.705078 C 970.85686 78.705078 980.42961 76.856849 987.60938 73.158203 C 994.89789 69.459532 1000.0654 64.890366 1003.1113 59.451172 C 1006.1573 53.903178 1007.6797 48.137415 1007.6797 42.154297 C 1007.6797 32.363708 1003.8194 24.585856 996.0957 18.820312 C 988.37204 12.945969 977.16633 10.007812 962.48047 10.007812 C 959.65207 10.007812 957.15028 10.063025 954.97461 10.171875 L 936.86133 10.335938 C 925.87412 10.335938 917.60656 10.172053 912.05859 9.8457031 z M 242.06055 13.109375 C 249.34908 13.109375 254.51459 15.611165 257.56055 20.615234 C 260.71529 25.619304 262.29297 33.397156 262.29297 43.949219 C 262.29297 53.630983 260.60668 61.300238 257.23438 66.957031 C 253.86207 72.6138 247.7705 75.443359 238.95898 75.443359 L 231.94336 75.443359 L 231.94336 27.142578 C 231.94336 23.226332 232.21389 20.288176 232.75781 18.330078 C 233.30173 16.371955 234.22779 15.013452 235.5332 14.251953 C 236.9474 13.490479 239.12338 13.109375 242.06055 13.109375 z M 960.35938 13.109375 C 967.64792 13.109375 972.81538 15.611165 975.86133 20.615234 C 979.01607 25.619304 980.59375 33.397156 980.59375 43.949219 C 980.59375 53.630983 978.90748 61.300238 975.53516 66.957031 C 972.16286 72.6138 966.07128 75.443359 957.25977 75.443359 L 950.24219 75.443359 L 950.24219 27.142578 C 950.24219 23.226332 950.51467 20.288176 951.05859 18.330078 C 951.60252 16.371955 952.52663 15.013452 953.83203 14.251953 C 955.24623 13.490479 957.4222 13.109375 960.35938 13.109375 z M 327.72656 25.837891 L 293.29688 104.65039 C 290.79484 110.19838 288.40165 114.38645 286.11719 117.21484 C 283.9415 119.93444 281.54832 121.5674 278.9375 122.11133 L 278.9375 125.375 C 281.87467 125.04865 286.27996 124.88477 292.1543 124.88477 C 298.46378 124.88477 304.71923 125.04865 310.91992 125.375 L 310.91992 122.11133 C 306.2422 121.89375 302.70575 120.91438 300.3125 119.17383 C 297.91925 117.43328 296.72266 114.71427 296.72266 111.01562 C 296.72266 106.9906 298.24701 101.3868 301.29297 94.207031 L 303.25 89.802734 L 337.51758 89.802734 L 345.67578 108.4043 C 347.08997 111.34147 347.79688 113.78995 347.79688 115.74805 C 347.79687 117.92374 346.92805 119.49947 345.1875 120.47852 C 343.44695 121.34892 340.78128 121.89388 337.19141 122.11133 L 337.19141 125.375 C 342.7394 125.04865 351.33276 124.88477 362.97266 124.88477 C 372.00174 124.88477 379.12797 125.04865 384.34961 125.375 L 384.34961 122.11133 C 380.65095 121.89375 377.2231 118.41259 374.06836 111.66797 L 335.23242 25.837891 C 334.47093 25.946741 333.22101 26 331.48047 26 C 329.84871 26 328.59684 25.946741 327.72656 25.837891 z M 1046.0273 25.837891 L 1011.5957 104.65039 C 1009.0937 110.19838 1006.7005 114.38645 1004.416 117.21484 C 1002.2403 119.93444 999.84715 121.5674 997.23633 122.11133 L 997.23633 125.375 C 1000.1735 125.04865 1004.5788 124.88477 1010.4531 124.88477 C 1016.7626 124.88477 1023.0181 125.04865 1029.2188 125.375 L 1029.2188 122.11133 C 1024.541 121.89375 1021.0065 120.91438 1018.6133 119.17383 C 1016.22 117.43328 1015.0234 114.71427 1015.0234 111.01562 C 1015.0234 106.9906 1016.5458 101.3868 1019.5918 94.207031 L 1021.5508 89.802734 L 1055.8164 89.802734 L 1063.9766 108.4043 C 1065.3908 111.34147 1066.0977 113.78995 1066.0977 115.74805 C 1066.0977 117.92374 1065.2269 119.49947 1063.4863 120.47852 C 1061.7458 121.34892 1059.0801 121.89388 1055.4902 122.11133 L 1055.4902 125.375 C 1061.0382 125.04865 1069.6335 124.88477 1081.2734 124.88477 C 1090.3025 124.88477 1097.4268 125.04865 1102.6484 125.375 L 1102.6484 122.11133 C 1098.9498 121.89375 1095.5239 118.41259 1092.3691 111.66797 L 1053.5332 25.837891 C 1052.7717 25.946741 1051.5198 26 1049.7793 26 C 1048.1475 26 1046.8976 25.946741 1046.0273 25.837891 z M 378.63672 26.164062 C 379.39821 34.431653 379.7793 41.828401 379.7793 48.355469 C 379.7793 54.447362 379.61737 59.233748 379.29102 62.714844 L 383.04297 62.714844 C 384.56594 54.447253 386.36083 47.974595 388.42773 43.296875 C 390.60341 38.619155 393.32241 35.246585 396.58594 33.179688 C 399.95825 31.004015 404.25688 29.916016 409.47852 29.916016 L 414.53711 29.916016 L 414.53711 106.44531 C 414.53711 111.01426 414.10074 114.33349 413.23047 116.40039 C 412.3602 118.46729 410.83779 119.8811 408.66211 120.64258 C 406.48643 121.4042 402.94997 121.89388 398.05469 122.11133 L 398.05469 125.375 C 403.27632 125.04865 412.79575 124.88477 426.61133 124.88477 C 440.31813 124.88477 450.10808 125.04865 455.98242 125.375 L 455.98242 122.11133 C 451.08713 121.89375 447.55264 121.40408 445.37695 120.64258 C 443.20127 119.8811 441.67887 118.46729 440.80859 116.40039 C 439.93832 114.33349 439.50195 111.01426 439.50195 106.44531 L 439.50195 29.916016 L 444.56055 29.916016 C 449.78218 29.916016 454.02554 31.004015 457.28906 33.179688 C 460.66137 35.246585 463.38037 38.619155 465.44727 43.296875 C 467.62295 47.974595 469.47312 54.447253 470.99609 62.714844 L 474.74805 62.714844 C 474.42169 59.233748 474.25781 54.447362 474.25781 48.355469 C 474.25781 41.828401 474.6389 34.431653 475.40039 26.164062 C 465.82739 26.490412 449.56478 26.652344 426.61133 26.652344 C 404.09302 26.652344 388.10094 26.490412 378.63672 26.164062 z M 484.53906 26.164062 C 485.30055 34.431653 485.68164 41.828401 485.68164 48.355469 C 485.68164 54.447362 485.51776 59.233748 485.19141 62.714844 L 488.94531 62.714844 C 490.46829 54.447253 492.26318 47.974595 494.33008 43.296875 C 496.50576 38.619155 499.22476 35.246585 502.48828 33.179688 C 505.86059 31.004015 510.15727 29.916016 515.37891 29.916016 L 520.4375 29.916016 L 520.4375 106.44531 C 520.4375 111.01426 520.00308 114.33349 519.13281 116.40039 C 518.26254 118.46729 516.73818 119.8811 514.5625 120.64258 C 512.38682 121.4042 508.85232 121.89388 503.95703 122.11133 L 503.95703 125.375 C 509.17867 125.04865 518.69613 124.88477 532.51172 124.88477 C 546.21851 124.88477 556.01042 125.04865 561.88477 125.375 L 561.88477 122.11133 C 556.98947 121.89375 553.45302 121.40408 551.27734 120.64258 C 549.10167 119.8811 547.57926 118.46729 546.70898 116.40039 C 545.83871 114.33349 545.4043 111.01426 545.4043 106.44531 L 545.4043 29.916016 L 550.46094 29.916016 C 555.68258 29.916016 559.92593 31.004015 563.18945 33.179688 C 566.56177 35.246585 569.28076 38.619155 571.34766 43.296875 C 573.52333 47.974595 575.37351 54.447253 576.89648 62.714844 L 580.64844 62.714844 C 580.32206 59.233748 580.16016 54.447362 580.16016 48.355469 C 580.16016 41.828401 580.54124 34.431653 581.30273 26.164062 C 571.72975 26.490412 555.46518 26.652344 532.51172 26.652344 C 509.99341 26.652344 494.00328 26.490412 484.53906 26.164062 z M 591.41797 26.164062 L 591.41797 29.427734 C 595.00784 29.645284 597.62018 30.079697 599.25195 30.732422 C 600.9925 31.385121 602.13384 32.637005 602.67773 34.486328 C 603.33046 36.335651 603.65625 39.327142 603.65625 43.460938 L 603.65625 108.07812 C 603.65625 112.21192 603.33046 115.20341 602.67773 117.05273 C 602.13384 118.90206 601.04584 120.15196 599.41406 120.80469 C 597.78231 121.45751 595.11664 121.89388 591.41797 122.11133 L 591.41797 125.375 C 602.73151 125.04865 619.59436 124.88477 642.00391 124.88477 C 658.75664 124.88477 670.66729 125.04865 677.73828 125.375 C 676.97678 117.43376 676.5957 110.3628 676.5957 104.16211 C 676.5957 99.375615 676.75959 95.458081 677.08594 92.412109 L 673.33398 92.412109 C 671.59344 102.96417 668.49142 110.4715 664.03125 114.93164 C 659.67991 119.39181 653.64361 121.62109 645.91992 121.62109 L 638.90234 121.62109 C 636.07395 121.62109 633.95326 121.4039 632.53906 120.96875 C 631.12486 120.42483 630.09215 119.44545 629.43945 118.03125 C 628.89553 116.50828 628.62305 114.17035 628.62305 111.01562 L 628.62305 77.074219 L 636.29297 77.074219 C 641.51459 77.074219 645.43019 78.760516 648.04102 82.132812 C 650.76061 85.396334 652.50022 89.584396 653.26172 94.697266 L 657.01562 94.697266 C 656.3629 86.756025 656.03711 80.338654 656.03711 75.443359 L 656.03711 68.916016 C 656.03711 64.129521 656.19904 59.886171 656.52539 56.1875 L 652.77344 56.1875 C 651.90316 60.86522 650.1616 64.999973 647.55078 68.589844 C 645.04876 72.07094 641.29704 73.810547 636.29297 73.810547 L 628.62305 73.810547 L 628.62305 40.523438 C 628.62305 37.368691 628.89553 35.08412 629.43945 33.669922 C 630.09215 32.146949 631.12486 31.167546 632.53906 30.732422 C 633.95326 30.188497 636.07395 29.916016 638.90234 29.916016 L 644.94141 29.916016 C 652.01237 29.916016 657.55896 31.92813 661.58398 35.953125 C 665.609 39.869371 668.43856 46.505889 670.07031 55.861328 L 673.82227 55.861328 C 673.49592 53.359281 673.33398 49.986711 673.33398 45.744141 C 673.33398 39.978572 673.71314 33.452604 674.47461 26.164062 C 668.05634 26.490412 657.23366 26.652344 642.00391 26.652344 C 619.59436 26.652344 602.73151 26.490412 591.41797 26.164062 z M 690.79297 26.164062 L 690.79297 29.427734 C 694.49161 29.645284 697.15729 30.079697 698.78906 30.732422 C 700.42081 31.385121 701.50881 32.637005 702.05273 34.486328 C 702.70546 36.335651 703.03125 39.327142 703.03125 43.460938 L 703.03125 108.07812 C 703.03125 112.21192 702.70546 115.20341 702.05273 117.05273 C 701.50881 118.90206 700.42081 120.15196 698.78906 120.80469 C 697.15729 121.45751 694.49161 121.89388 690.79297 122.11133 L 690.79297 125.375 C 695.90581 125.04865 703.51978 124.88477 713.63672 124.88477 C 725.16783 124.88477 734.03368 125.04865 740.23438 125.375 L 740.23438 122.11133 C 736.6445 121.89375 733.98078 121.45739 732.24023 120.80469 C 730.60846 120.15196 729.4652 118.90206 728.8125 117.05273 C 728.26858 115.20341 727.99609 112.21192 727.99609 108.07812 L 727.99609 80.011719 L 733.38086 80.011719 C 738.16738 80.011719 741.7591 81.04443 744.15234 83.111328 C 746.65437 85.069451 748.5026 89.095582 749.69922 95.1875 L 754.43164 114.44141 C 755.41069 118.46643 757.58666 121.67511 760.95898 124.06836 C 764.33128 126.46161 769.11767 127.6582 775.31836 127.6582 C 780.21365 127.6582 784.29312 126.89797 787.55664 125.375 C 790.82016 123.85203 793.75637 121.56743 796.36719 118.52148 L 794.08398 116.40039 C 791.69074 118.79364 789.35088 119.99023 787.06641 119.99023 C 785.43463 119.99023 784.0761 119.33667 782.98828 118.03125 C 781.90043 116.72585 780.97439 114.54985 780.21289 111.50391 L 776.78711 96.982422 C 775.37291 91.325628 772.38144 87.190875 767.8125 84.580078 C 763.35236 81.969256 757.20549 80.229649 749.37305 79.359375 C 747.74127 79.033025 746.1636 78.869141 744.64062 78.869141 C 758.12986 77.454942 767.75789 74.190969 773.52344 69.078125 C 779.28901 63.965256 782.17188 58.037586 782.17188 51.292969 C 782.17187 43.460528 778.52682 37.366995 771.23828 33.015625 C 764.05854 28.55548 753.1806 26.326172 738.60352 26.326172 C 735.88392 26.326172 733.43546 26.381384 731.25977 26.490234 L 712.6582 26.652344 C 703.19399 26.652344 695.90581 26.490412 690.79297 26.164062 z M 799.63086 26.164062 L 799.63086 29.427734 C 803.22073 29.645284 805.83114 30.079697 807.46289 30.732422 C 809.20344 31.385121 810.3467 32.637005 810.89062 34.486328 C 811.54332 36.335651 811.86914 39.327142 811.86914 43.460938 L 811.86914 103.50977 C 811.86914 108.40503 811.54332 112.04816 810.89062 114.44141 C 810.3467 116.83465 809.20344 118.57621 807.46289 119.66406 C 805.83114 120.75191 803.22073 121.5674 799.63086 122.11133 L 799.63086 125.375 C 803.11193 125.04865 807.84498 124.88477 813.82812 124.88477 C 821.33422 124.88477 827.53439 125.04865 832.42969 125.375 L 832.42969 122.11133 C 827.53439 121.5674 823.9446 120.75191 821.66016 119.66406 C 819.37568 118.57621 817.79801 116.83465 816.92773 114.44141 C 816.05746 111.93938 815.62305 108.29626 815.62305 103.50977 L 815.62305 44.601562 L 880.89258 125.70117 L 885.13477 125.53711 L 889.54102 125.70117 L 889.54102 48.029297 C 889.54102 43.134002 889.8135 39.48895 890.35742 37.095703 C 891.01012 34.702456 892.15143 32.962849 893.7832 31.875 C 895.52375 30.787176 898.18943 29.971659 901.7793 29.427734 L 901.7793 26.164062 C 898.407 26.490412 893.6759 26.652344 887.58398 26.652344 C 879.96909 26.652344 873.76696 26.490412 868.98047 26.164062 L 868.98047 29.427734 C 873.76696 29.971659 877.30342 30.787176 879.58789 31.875 C 881.98114 32.962849 883.61215 34.757744 884.48242 37.259766 C 885.3527 39.653038 885.78906 43.242802 885.78906 48.029297 L 885.78906 90.78125 L 833.73438 26.164062 C 828.18638 26.490412 821.55179 26.652344 813.82812 26.652344 C 807.84498 26.652344 803.11193 26.490412 799.63086 26.164062 z M 1106.8906 26.164062 L 1106.8906 29.427734 C 1110.4805 29.645284 1113.0909 30.079697 1114.7227 30.732422 C 1116.4632 31.385121 1117.6065 32.637005 1118.1504 34.486328 C 1118.8031 36.335651 1119.1289 39.327142 1119.1289 43.460938 L 1119.1289 108.07812 C 1119.1289 112.21192 1118.8031 115.20341 1118.1504 117.05273 C 1117.6065 118.90206 1116.5185 120.15196 1114.8867 120.80469 C 1113.255 121.45751 1110.5893 121.89388 1106.8906 122.11133 L 1106.8906 125.375 C 1118.2042 125.04865 1135.067 124.88477 1157.4766 124.88477 C 1174.2293 124.88477 1186.14 125.04865 1193.2109 125.375 C 1192.4494 116.67226 1192.0684 108.94772 1192.0684 102.20312 C 1192.0684 96.872681 1192.2322 92.412136 1192.5586 88.822266 L 1188.8047 88.822266 C 1187.0641 100.35338 1183.7469 108.73148 1178.8516 113.95312 C 1173.9563 119.06599 1167.918 121.62109 1160.7383 121.62109 L 1154.375 121.62109 C 1151.5466 121.62109 1149.4259 121.34861 1148.0117 120.80469 C 1146.5975 120.26076 1145.5629 119.17474 1144.9102 117.54297 C 1144.3662 115.91122 1144.0957 113.40748 1144.0957 110.03516 L 1144.0957 43.460938 C 1144.0957 39.327142 1144.3662 36.335651 1144.9102 34.486328 C 1145.5629 32.637005 1146.7061 31.385121 1148.3379 30.732422 C 1149.9697 30.079597 1152.6353 29.645183 1156.334 29.427734 L 1156.334 26.164062 C 1150.786 26.490412 1142.8976 26.652344 1132.6719 26.652344 C 1121.032 26.652344 1112.4386 26.490412 1106.8906 26.164062 z M 736.48242 29.427734 C 743.55339 29.427734 748.55697 31.384561 751.49414 35.300781 C 754.54011 39.217002 756.0625 45.14665 756.0625 53.087891 C 756.0625 60.594007 754.54011 66.41308 751.49414 70.546875 C 748.55697 74.68067 743.06369 76.748047 735.01367 76.748047 L 727.99609 76.748047 L 727.99609 43.460938 C 727.99609 39.544717 728.21524 36.606535 728.65039 34.648438 C 729.08552 32.690315 729.90103 31.329859 731.09766 30.568359 C 732.29428 29.806885 734.08917 29.427734 736.48242 29.427734 z M 320.38477 50.802734 L 336.04883 86.539062 L 304.71875 86.539062 L 320.38477 50.802734 z M 1038.6836 50.802734 L 1054.3477 86.539062 L 1023.0195 86.539062 L 1038.6836 50.802734 z "
       transform="matrix(0.26458333,0,0,0.26458333,-43.13414,101.39461)" />
  </g>
</svg>
